<svg width="195" height="186" viewBox="0 0 195 186" fill="none" xmlns="http://www.w3.org/2000/svg">
<g id="hair">
<path d="M119.742 87.5576C99.0453 56.748 70.3528 54.9256 58.5937 57.8657C46.1512 61.6473 45.5841 77.708 43.4748 97.5353C41.5226 115.886 30.6785 128.417 25.335 135.354C27.0224 136.993 25.7568 151.533 25.335 155.189C24.9975 158.114 30.8978 160.82 30.8978 168.193C25.1678 175.237 22.2417 174.505 16.8186 172.166C14.8152 171.005 12.2172 166.871 11.1305 165.642C6.74696 160.684 10.2766 156.775 12.4193 154.441C8.2939 149.857 7.64439 140.594 7.83531 136.536C1.30306 130.233 5.11354 126.27 7.83531 125.076C6.80395 121.409 9.60236 111.325 11.1305 106.741C8.72399 100.324 11.2734 90.7932 12.8489 86.8301C10.4424 61.6191 20.0588 50.0641 25.1678 47.438C36.0544 29.1027 47.391 23.5732 53.4073 23.6209C60.5973 6.13836 73.241 14.1373 73.241 14.1373C84.317 -0.0725031 101.883 3.36641 109.682 7.9025C122.288 7.44412 142.126 20.9472 150.469 27.756C173.619 39.5879 182.407 78.1273 183.907 95.918C184.55 97.4185 186.608 102.156 189.695 109.1C193.553 117.781 186.801 121.318 179.272 122.926C171.743 124.533 179.196 140.2 181.272 147.673C183.348 155.146 173.288 160.787 170.936 163.554C168.583 166.322 184.462 172.386 174.282 179.716C170.031 182.777 167.55 182.927 165.738 181.885C163.211 180.431 161.986 176.66 159.078 175.237C154.087 172.794 161.178 155.839 164.07 147.673C166.384 141.14 159.706 122.317 157.078 113.722C153.08 113.957 140.909 99.905 135.324 92.8494C128.033 95.9069 121.898 90.5955 119.742 87.5576Z" fill="#EEE0BD"/>
<path d="M58.5937 57.8657C70.3528 54.9256 99.0453 56.748 119.742 87.5576C121.898 90.5955 128.033 95.9069 135.324 92.8494M58.5937 57.8657C46.1512 61.6473 45.5841 77.708 43.4748 97.5353C41.5226 115.886 30.6785 128.417 25.335 135.354M58.5937 57.8657C47.5177 46.4327 49.3819 29.925 53.4073 23.6209M135.324 92.8494C140.909 99.905 153.08 113.957 157.078 113.722M135.324 92.8494C127.545 62.7901 106.474 25.9488 73.241 14.1373M157.078 113.722C159.706 122.317 166.384 141.14 164.07 147.673C161.178 155.839 154.087 172.794 159.078 175.237C161.986 176.66 163.211 180.431 165.738 181.885C167.55 182.927 170.031 182.777 174.282 179.716C184.462 172.386 168.583 166.322 170.936 163.554C173.288 160.787 183.348 155.146 181.272 147.673C179.196 140.2 171.743 124.533 179.272 122.926M157.078 113.722C161.104 112.927 172.282 111.465 159.812 97.5353C148.696 85.1187 143.249 83.1687 139.999 68.4508C136.749 53.7329 140.501 27.7364 109.682 7.9025M179.272 122.926C186.801 121.318 193.553 117.781 189.695 109.1C186.608 102.156 184.55 97.4185 183.907 95.918M179.272 122.926C176.032 122.927 170.097 119.393 172.282 105.244M183.907 95.918C182.407 78.1273 173.619 39.5879 150.469 27.756C142.126 20.9472 122.288 7.44412 109.682 7.9025M183.907 95.918C181.577 94.1376 175.99 89.1101 172.282 83.2433M109.682 7.9025C101.883 3.36641 84.317 -0.0725031 73.241 14.1373M73.241 14.1373C73.241 14.1373 60.5973 6.13836 53.4073 23.6209M53.4073 23.6209C47.391 23.5732 36.0544 29.1027 25.1678 47.438M25.1678 47.438C20.0588 50.0641 10.4424 61.6191 12.8489 86.8301C11.2734 90.7932 8.72399 100.324 11.1305 106.741C9.60236 111.325 6.80395 121.409 7.83531 125.076M25.1678 47.438C23.3693 54.4896 21.5569 70.659 25.1678 81.6494C29.8558 95.918 23.925 118.565 7.83531 125.076M7.83531 125.076C5.11354 126.27 1.30306 130.233 7.83531 136.536M7.83531 136.536C7.64439 140.594 8.2939 149.858 12.4193 154.441C10.2766 156.775 6.74696 160.684 11.1305 165.642C12.2172 166.871 14.8152 171.005 16.8186 172.166C22.2417 174.505 25.1678 175.237 30.8978 168.193C30.8978 160.82 24.9975 158.114 25.335 155.189C25.7568 151.533 27.0224 136.993 25.335 135.354M7.83531 136.536C9.68331 139.139 15.7704 140.291 25.335 135.354" stroke="#D6B563" stroke-width="7" stroke-linecap="round" stroke-linejoin="round"/>
</g>
</svg>
